<svg xmlns="http://www.w3.org/2000/svg" width="112" height="25" viewBox="0 0 112 25" fill="none"><g clip-path="url(#clip0_1019_33137)"><g clip-path="url(#clip1_1019_33137)"><path d="M0 24.0203V0.979675H3.95942L11.6852 16.2761L19.4094 0.979675H23.3689V24.0203H19.2467V10.2604L12.4637 24.0203H10.9051L4.12213 10.2604V24.0203H0Z" fill="#121028"></path><path d="M50.9253 24.5C48.5882 24.5 46.5734 23.9983 44.8792 22.9965C43.1867 21.9931 41.8818 20.5917 40.9677 18.7878C40.0536 16.9855 39.5958 14.889 39.5958 12.5C39.5958 10.111 40.052 8.01455 40.9677 6.21219C41.8818 4.40983 43.1851 3.00695 44.8792 2.00354C46.5718 1.0017 48.5882 0.5 50.9253 0.5C53.6085 0.5 55.861 1.15583 57.6843 2.4675C59.5077 3.77916 60.7919 5.55478 61.5385 7.79594L57.0925 9.01166C56.6602 7.61507 55.9296 6.52988 54.9022 5.75609C53.8733 4.98231 52.5492 4.59541 50.9268 4.59541C49.4449 4.59541 48.2085 4.92097 47.2179 5.57051C46.2272 6.22163 45.4838 7.13853 44.9861 8.3228C44.4884 9.50708 44.2395 10.899 44.2395 12.4984C44.2395 14.0979 44.4884 15.4898 44.9861 16.674C45.4838 17.8583 46.2272 18.7752 47.2179 19.4263C48.2085 20.0775 49.4433 20.403 50.9268 20.403C52.5492 20.403 53.8749 20.0145 54.9022 19.2345C55.9296 18.456 56.6602 17.3739 57.0925 15.9868L61.5385 17.2025C60.7919 19.4421 59.5077 21.2193 57.6843 22.5309C55.861 23.8426 53.6085 24.4984 50.9253 24.4984" fill="#121028"></path><path d="M39.6165 0.971802H25.8973V5.06092H39.6165V0.971802Z" fill="#FF8133"></path><path d="M39.6165 20.002H25.8973V24.0911H39.6165V20.002Z" fill="#FF8133"></path><path d="M36.8727 10.4083H25.8973V14.4974H36.8727V10.4083Z" fill="#FF8133"></path></g></g><path d="M70.4048 5.82698V0H71.1695L73.2814 4.38224L75.3806 0H76.1533V5.82218H75.3518V1.83673L73.4702 5.82538H73.0863L71.2015 1.83673V5.82538H70.4048V5.82698Z" fill="#121028"></path><path d="M77.4317 5.82698V4.93262H78.3261V5.82698H77.4317Z" fill="#121028"></path><path d="M79.1996 5.82703L81.0924 0.00164795H82.3099L84.2026 5.82703H83.3243L81.5803 0.510429H81.7995L80.0764 5.82703H79.198H79.1996ZM80.182 4.51188V3.71831H83.2251V4.51188H80.182Z" fill="#121028"></path><path d="M70.4048 14.2133V8.38788H74.1262V9.18465H71.2495V10.8198H73.6414V11.6166H71.2495V13.4165H74.1262V14.2133H70.4048Z" fill="#FF8133"></path><path d="M74.6126 14.2133L76.2477 12.0038L74.6494 9.84387H75.6526L76.7405 11.3446L77.8173 9.84387H78.8204L77.2221 12.0038L78.8604 14.2133H77.8525L76.7405 12.663L75.6206 14.2133H74.6126Z" fill="#FF8133"></path><path d="M79.5036 16.1556V9.84389H80.2556V12.9878H80.3532V16.1556H79.5036ZM81.5595 14.3349C81.142 14.3349 80.7916 14.2325 80.5068 14.0293C80.2236 13.8261 80.0092 13.5493 79.8636 13.2022C79.718 12.855 79.6444 12.4614 79.6444 12.0246C79.6444 11.5878 79.7164 11.1958 79.8604 10.847C80.0044 10.4999 80.2172 10.2247 80.5004 10.0231C80.782 9.82309 81.1292 9.72229 81.5419 9.72229C81.9547 9.72229 82.3067 9.82309 82.6043 10.0231C82.9019 10.2247 83.1323 10.4983 83.2939 10.8438C83.4555 11.191 83.5371 11.583 83.5371 12.023C83.5371 12.463 83.4571 12.8534 83.2971 13.2022C83.1371 13.5509 82.9083 13.8277 82.6139 14.0293C82.3179 14.2309 81.9675 14.3333 81.5595 14.3333V14.3349ZM81.4427 13.5701C81.7131 13.5701 81.9355 13.5013 82.1115 13.3638C82.2875 13.2262 82.4203 13.0406 82.5083 12.807C82.5963 12.5734 82.6395 12.3126 82.6395 12.0246C82.6395 11.7366 82.5963 11.479 82.5083 11.2486C82.4203 11.0166 82.2859 10.831 82.1051 10.6951C81.9243 10.5575 81.6939 10.4887 81.4139 10.4887C81.15 10.4887 80.9324 10.5543 80.7612 10.6823C80.59 10.8118 80.4636 10.9926 80.3804 11.2246C80.2988 11.4566 80.2572 11.7238 80.2572 12.0262C80.2572 12.3286 80.2972 12.5958 80.3788 12.8278C80.4588 13.0598 80.5884 13.2422 80.7628 13.3734C80.9388 13.5061 81.1644 13.5717 81.4427 13.5717V13.5701Z" fill="#FF8133"></path><path d="M86.3657 14.3348C85.9322 14.3348 85.5498 14.2404 85.2234 14.0501C84.8954 13.8597 84.641 13.5941 84.4586 13.2533C84.2762 12.9125 84.185 12.5157 84.185 12.0661C84.185 11.5893 84.2746 11.175 84.4538 10.8246C84.633 10.4742 84.8826 10.2022 85.2042 10.0118C85.5258 9.81981 85.8986 9.72382 86.3241 9.72382C86.7497 9.72382 87.1481 9.82781 87.4617 10.0326C87.7753 10.239 88.0089 10.5318 88.1641 10.9126C88.3193 11.2934 88.3801 11.7445 88.3481 12.2677H87.5017V11.9605C87.4969 11.4534 87.3993 11.079 87.2121 10.8358C87.0249 10.5926 86.7385 10.471 86.3561 10.471C85.9322 10.471 85.6138 10.6038 85.401 10.871C85.1882 11.1382 85.081 11.5237 85.081 12.0277C85.081 12.5317 85.1882 12.8789 85.401 13.1429C85.6138 13.4053 85.921 13.5381 86.3241 13.5381C86.5881 13.5381 86.8169 13.4773 87.0105 13.3573C87.2041 13.2373 87.3529 13.0661 87.4617 12.8421L88.2905 13.1045C88.1209 13.4949 87.8633 13.7989 87.5177 14.0133C87.1721 14.2276 86.7881 14.3348 86.3641 14.3348H86.3657ZM84.8074 12.2677V11.6085H87.9273V12.2677H84.8074Z" fill="#FF8133"></path><path d="M89.2536 14.2133V9.84382H90.0056V10.9046L89.9 10.767C89.9544 10.6262 90.0248 10.4982 90.1112 10.3798C90.1976 10.263 90.2968 10.1654 90.4104 10.0902C90.5208 10.0086 90.644 9.94621 90.78 9.90141C90.916 9.85662 91.0552 9.82942 91.1992 9.81982C91.3416 9.81022 91.4792 9.81822 91.612 9.84222V10.6358C91.4696 10.5974 91.3112 10.5878 91.1368 10.6038C90.9624 10.6198 90.8024 10.6758 90.6568 10.7702C90.5192 10.8598 90.4104 10.967 90.3304 11.0934C90.2504 11.2198 90.1928 11.3606 90.1592 11.5158C90.124 11.6709 90.1064 11.8341 90.1064 12.0069V14.2117H89.252L89.2536 14.2133Z" fill="#FF8133"></path><path d="M91.8952 10.5238V9.84386H94.8807V10.5238H91.8952ZM94.8807 14.2133C94.6055 14.2677 94.3351 14.2901 94.0711 14.2821C93.8071 14.2741 93.5703 14.2229 93.3639 14.1285C93.1559 14.0341 92.9991 13.8853 92.8951 13.6837C92.8007 13.5029 92.7495 13.3189 92.7431 13.1317C92.7367 12.9445 92.7335 12.7318 92.7335 12.495V8.6311H93.5831V12.455C93.5831 12.631 93.5847 12.7829 93.5895 12.9125C93.5943 13.0421 93.6215 13.1509 93.6727 13.2405C93.7703 13.4085 93.9239 13.5029 94.1367 13.5253C94.3479 13.5477 94.5975 13.5397 94.8838 13.4997V14.2165L94.8807 14.2133Z" fill="#FF8133"></path><path d="M95.8806 9.12869V8.30792H96.727V9.12869H95.8806ZM95.8806 14.2149V9.84547H96.727V14.2149H95.8806Z" fill="#FF8133"></path><path d="M99.6117 14.3317C99.0805 14.3317 98.6469 14.2149 98.3125 13.9797C97.9781 13.7445 97.7733 13.4149 97.6981 12.9877L98.5637 12.8549C98.6181 13.0821 98.7429 13.2597 98.9381 13.3909C99.1333 13.5221 99.3765 13.5877 99.6677 13.5877C99.9317 13.5877 100.14 13.5333 100.288 13.4261C100.439 13.3189 100.512 13.1701 100.512 12.9813C100.512 12.8709 100.487 12.7813 100.434 12.7126C100.381 12.6438 100.271 12.5782 100.104 12.5158C99.9364 12.4534 99.6821 12.3766 99.3397 12.2854C98.9653 12.1878 98.6677 12.0838 98.4469 11.9718C98.2261 11.8598 98.0709 11.7286 97.9781 11.5798C97.8853 11.4294 97.8389 11.2486 97.8389 11.0358C97.8389 10.7718 97.9093 10.5414 98.0485 10.3446C98.1893 10.1478 98.3861 9.99585 98.6421 9.88706C98.8965 9.77986 99.1957 9.72546 99.5381 9.72546C99.8805 9.72546 100.17 9.77826 100.432 9.88386C100.695 9.98945 100.906 10.1382 101.068 10.3302C101.229 10.5222 101.327 10.7494 101.359 11.0086L100.493 11.167C100.463 10.9558 100.365 10.791 100.197 10.6694C100.031 10.5478 99.8133 10.4822 99.5461 10.471C99.2901 10.4598 99.0821 10.503 98.9237 10.599C98.7637 10.695 98.6853 10.8262 98.6853 10.9926C98.6853 11.0902 98.7157 11.1718 98.7765 11.239C98.8373 11.3062 98.9557 11.3718 99.1301 11.4326C99.3045 11.4934 99.5637 11.5686 99.9077 11.655C100.274 11.7494 100.565 11.8534 100.781 11.9686C100.997 12.0838 101.151 12.2198 101.245 12.3766C101.338 12.535 101.384 12.7254 101.384 12.9493C101.384 13.3813 101.228 13.7189 100.912 13.9653C100.597 14.2117 100.165 14.3333 99.6117 14.3333V14.3317Z" fill="#FF8133"></path><path d="M104.215 14.3348C103.781 14.3348 103.399 14.2404 103.072 14.0501C102.744 13.8597 102.49 13.5941 102.308 13.2533C102.125 12.9125 102.034 12.5157 102.034 12.0661C102.034 11.5893 102.124 11.175 102.303 10.8246C102.482 10.4742 102.732 10.2022 103.053 10.0118C103.375 9.81981 103.748 9.72382 104.173 9.72382C104.599 9.72382 104.997 9.82781 105.311 10.0326C105.624 10.239 105.858 10.5318 106.013 10.9126C106.168 11.2934 106.229 11.7445 106.197 12.2677H105.351V11.9605C105.346 11.4534 105.248 11.079 105.061 10.8358C104.874 10.5926 104.587 10.471 104.205 10.471C103.781 10.471 103.463 10.6038 103.25 10.871C103.037 11.1382 102.93 11.5237 102.93 12.0277C102.93 12.5317 103.037 12.8789 103.25 13.1429C103.463 13.4053 103.77 13.5381 104.173 13.5381C104.437 13.5381 104.666 13.4773 104.859 13.3573C105.053 13.2373 105.202 13.0661 105.311 12.8421L106.139 13.1045C105.97 13.4949 105.712 13.7989 105.367 14.0133C105.021 14.2276 104.637 14.3348 104.213 14.3348H104.215ZM102.656 12.2677V11.6085H105.776V12.2677H102.656Z" fill="#FF8133"></path><path d="M72.8367 22.6845C72.2543 22.6845 71.7583 22.5565 71.3471 22.3021C70.9375 22.0478 70.6239 21.6926 70.4063 21.2366C70.1888 20.7806 70.08 20.2526 70.08 19.651C70.08 19.0495 70.1888 18.5215 70.4063 18.0655C70.6239 17.6095 70.9375 17.2543 71.3471 16.9999C71.7567 16.7455 72.2527 16.6176 72.8367 16.6176C73.5086 16.6176 74.0638 16.7871 74.5054 17.1279C74.947 17.4671 75.2526 17.9247 75.4254 18.4991L74.5678 18.7295C74.4542 18.3231 74.2526 18.0031 73.963 17.7711C73.6734 17.5391 73.2974 17.4239 72.8367 17.4239C72.4239 17.4239 72.0799 17.5167 71.8047 17.7039C71.5295 17.8911 71.3231 18.1503 71.1839 18.4847C71.0447 18.8191 70.9759 19.2095 70.9759 19.6542C70.9727 20.099 71.0415 20.4894 71.1807 20.8238C71.3199 21.1582 71.5279 21.419 71.8031 21.6046C72.0799 21.7902 72.4239 21.8846 72.8367 21.8846C73.2974 21.8846 73.6734 21.7678 73.963 21.5342C74.2526 21.3006 74.4542 20.9822 74.5678 20.5774L75.4254 20.8078C75.2526 21.3822 74.9454 21.8398 74.5054 22.1789C74.0638 22.5181 73.5086 22.6893 72.8367 22.6893V22.6845Z" fill="#121028"></path><path d="M78.2125 22.6844C77.7757 22.6844 77.3965 22.5852 77.0749 22.3884C76.7533 22.1916 76.5069 21.9196 76.3325 21.5725C76.1581 21.2253 76.0717 20.8253 76.0717 20.3725C76.0717 19.9197 76.1613 19.5149 76.3389 19.1693C76.5165 18.8222 76.7661 18.5534 77.0877 18.3598C77.4093 18.1662 77.7837 18.0702 78.2125 18.0702C78.6412 18.0702 79.0284 18.1694 79.35 18.3662C79.6716 18.563 79.9196 18.835 80.094 19.1789C80.27 19.5245 80.3564 19.9213 80.3564 20.3725C80.3564 20.8237 80.2684 21.2301 80.0908 21.5757C79.9148 21.9228 79.6652 22.1932 79.3436 22.3884C79.022 22.5836 78.6444 22.6812 78.2109 22.6812L78.2125 22.6844ZM78.2125 21.8876C78.63 21.8876 78.942 21.7469 79.1484 21.4653C79.3548 21.1837 79.4572 20.8205 79.4572 20.3741C79.4572 19.9277 79.3532 19.5533 79.1436 19.2797C78.934 19.0062 78.6236 18.8686 78.2109 18.8686C77.9277 18.8686 77.6941 18.9326 77.5101 19.0606C77.3261 19.1885 77.1901 19.3661 77.1021 19.5901C77.0125 19.8157 76.9693 20.0765 76.9693 20.3725C76.9693 20.8317 77.0749 21.1981 77.2845 21.4733C77.4941 21.7485 77.8045 21.886 78.2109 21.886L78.2125 21.8876Z" fill="#121028"></path><path d="M81.2427 22.5629V18.1935H81.9995V19.4558H82.1003V22.5629H81.2427ZM84.313 22.5629V20.4142C84.313 20.2446 84.2986 20.0702 84.2698 19.891C84.241 19.7118 84.1882 19.5454 84.1082 19.3918C84.0282 19.2382 83.9162 19.1134 83.7722 19.019C83.6282 18.9246 83.4395 18.8782 83.2075 18.8782C83.0571 18.8782 82.9131 18.9038 82.7787 18.9534C82.6443 19.003 82.5259 19.083 82.4251 19.1934C82.3243 19.3038 82.2443 19.4494 82.1867 19.6302C82.1291 19.811 82.1003 20.0302 82.1003 20.2894L81.5739 20.091C81.5739 19.6942 81.6475 19.3438 81.7963 19.0414C81.9451 18.7374 82.1579 18.5006 82.4363 18.3311C82.7147 18.1615 83.0491 18.0767 83.4443 18.0767C83.7466 18.0767 83.9994 18.1247 84.2042 18.2223C84.409 18.3199 84.5754 18.4462 84.7034 18.6046C84.8314 18.763 84.929 18.9342 84.9962 19.1198C85.0634 19.3054 85.1098 19.4878 85.1338 19.6654C85.1578 19.843 85.1706 19.9998 85.1706 20.1342V22.5613H84.313V22.5629Z" fill="#121028"></path><path d="M87.8953 22.6798C87.3641 22.6798 86.9305 22.563 86.5961 22.3278C86.2617 22.0926 86.0569 21.763 85.9818 21.3358L86.8473 21.203C86.9017 21.4302 87.0265 21.6078 87.2217 21.739C87.4169 21.8702 87.6601 21.9358 87.9513 21.9358C88.2153 21.9358 88.4233 21.8814 88.5721 21.7742C88.7224 21.667 88.796 21.5182 88.796 21.3294C88.796 21.219 88.7705 21.1294 88.7177 21.0606C88.6649 20.9918 88.5545 20.9262 88.3881 20.8638C88.2201 20.8014 87.9657 20.7246 87.6233 20.6335C87.2489 20.5359 86.9513 20.4319 86.7305 20.3199C86.5113 20.2079 86.3545 20.0767 86.2617 19.9279C86.1689 19.7775 86.1225 19.5967 86.1225 19.3839C86.1225 19.1199 86.1929 18.8895 86.3321 18.6927C86.4729 18.4959 86.6697 18.3439 86.9257 18.2351C87.1817 18.1263 87.4793 18.0735 87.8217 18.0735C88.1641 18.0735 88.4537 18.1263 88.7161 18.2319C88.9784 18.3375 89.1896 18.4863 89.3512 18.6783C89.5128 18.8719 89.6104 19.0975 89.6424 19.3567L88.7769 19.5151C88.7465 19.3039 88.6489 19.1391 88.4809 19.0175C88.3145 18.8959 88.0969 18.8303 87.8297 18.8191C87.5737 18.8079 87.3657 18.8511 87.2073 18.9471C87.0473 19.0431 86.9689 19.1743 86.9689 19.3423C86.9689 19.4399 86.9993 19.5215 87.0601 19.5887C87.1209 19.6559 87.2393 19.7215 87.4137 19.7823C87.5881 19.8431 87.8473 19.9183 88.1913 20.0047C88.5577 20.0991 88.8488 20.2031 89.0648 20.3183C89.2808 20.4335 89.4344 20.5695 89.5288 20.7262C89.6216 20.8846 89.668 21.075 89.668 21.299C89.668 21.731 89.5112 22.0686 89.196 22.315C88.8808 22.5614 88.4489 22.683 87.8953 22.683V22.6798Z" fill="#121028"></path><path d="M92.2071 22.6797C91.9047 22.6797 91.652 22.6317 91.4472 22.5341C91.2424 22.4365 91.076 22.3101 90.948 22.1517C90.82 21.9933 90.7224 21.8221 90.6552 21.6366C90.588 21.451 90.5416 21.2686 90.5176 21.091C90.4936 20.9134 90.4808 20.7566 90.4808 20.6222V18.1951H91.3384V20.3438C91.3384 20.5134 91.3528 20.6878 91.3816 20.867C91.4104 21.0462 91.4632 21.2126 91.5432 21.3662C91.6232 21.5198 91.7352 21.6446 91.8792 21.7389C92.0231 21.8333 92.2119 21.8797 92.4439 21.8797C92.5943 21.8797 92.7383 21.8541 92.8727 21.8045C93.0071 21.7549 93.1255 21.675 93.2263 21.5646C93.3271 21.4542 93.4071 21.3086 93.4647 21.1278C93.5223 20.947 93.5511 20.7278 93.5511 20.4686L94.0775 20.667C94.0775 21.0638 94.0039 21.4142 93.8551 21.7166C93.7063 22.0205 93.4935 22.2573 93.2151 22.4269C92.9367 22.5965 92.6023 22.6813 92.2071 22.6813V22.6797ZM93.6519 22.5629V21.3006H93.5511V18.1935H94.4055V22.5629H93.6535H93.6519Z" fill="#121028"></path><path d="M95.6182 22.5629V16.6159H96.4646V22.5629H95.6182Z" fill="#121028"></path><path d="M97.1925 18.8734V18.1935H100.178V18.8734H97.1925ZM100.178 22.5629C99.9028 22.6173 99.6325 22.6397 99.3685 22.6317C99.1045 22.6237 98.8677 22.5725 98.6613 22.4781C98.4533 22.3837 98.2965 22.2349 98.1925 22.0333C98.0981 21.8525 98.0469 21.6685 98.0405 21.4813C98.0341 21.2942 98.0309 21.0814 98.0309 20.8446V16.9807H98.8805V20.8046C98.8805 20.9806 98.8821 21.1326 98.8869 21.2622C98.8917 21.3917 98.9189 21.5005 98.9701 21.5901C99.0677 21.7581 99.2213 21.8525 99.4341 21.8749C99.6452 21.8973 99.8948 21.8893 100.181 21.8493V22.5661L100.178 22.5629Z" fill="#121028"></path><path d="M101.176 17.4782V16.6575H102.023V17.4782H101.176ZM101.176 22.5645V18.195H102.023V22.5645H101.176Z" fill="#121028"></path><path d="M103.232 22.5629V18.1935H103.989V19.4558H104.09V22.5629H103.232ZM106.303 22.5629V20.4142C106.303 20.2446 106.288 20.0702 106.259 19.891C106.231 19.7118 106.178 19.5454 106.098 19.3918C106.018 19.2382 105.906 19.1134 105.762 19.019C105.618 18.9246 105.429 18.8782 105.197 18.8782C105.047 18.8782 104.903 18.9038 104.768 18.9534C104.634 19.003 104.515 19.083 104.415 19.1934C104.314 19.3038 104.234 19.4494 104.176 19.6302C104.119 19.811 104.09 20.0302 104.09 20.2894L103.564 20.091C103.564 19.6942 103.637 19.3438 103.786 19.0414C103.935 18.7374 104.147 18.5006 104.426 18.3311C104.704 18.1615 105.039 18.0767 105.434 18.0767C105.736 18.0767 105.989 18.1247 106.194 18.2223C106.399 18.3199 106.565 18.4462 106.693 18.6046C106.821 18.763 106.919 18.9342 106.986 19.1198C107.053 19.3054 107.099 19.4878 107.123 19.6654C107.147 19.843 107.16 19.9998 107.16 20.1342V22.5613H106.303V22.5629Z" fill="#121028"></path><path d="M109.949 22.6846C109.541 22.6846 109.191 22.5838 108.895 22.3806C108.599 22.179 108.371 21.9022 108.211 21.5534C108.051 21.2046 107.971 20.811 107.971 20.3743C107.971 19.9375 108.051 19.5407 108.215 19.1951C108.378 18.8495 108.607 18.5743 108.904 18.3743C109.202 18.1727 109.557 18.0735 109.966 18.0735C110.376 18.0735 110.726 18.1743 111.008 18.3743C111.29 18.5743 111.502 18.8495 111.648 19.1983C111.792 19.5455 111.864 19.9391 111.864 20.3759C111.864 20.8126 111.79 21.2046 111.645 21.5534C111.499 21.9022 111.285 22.1774 111.002 22.3806C110.718 22.5838 110.368 22.6862 109.949 22.6862V22.6846ZM110.013 24.6269C109.778 24.6269 109.55 24.5901 109.331 24.5181C109.112 24.4461 108.911 24.3389 108.731 24.1965C108.551 24.0557 108.4 23.8797 108.282 23.6733L109.063 23.2766C109.157 23.4621 109.291 23.5981 109.467 23.6845C109.643 23.7709 109.827 23.8141 110.021 23.8141C110.261 23.8141 110.466 23.7725 110.635 23.6861C110.805 23.5997 110.934 23.4733 111.022 23.3038C111.11 23.1342 111.152 22.923 111.15 22.6718V21.4494H111.251V18.1919H112V22.6782C112 22.7934 111.995 22.9054 111.987 23.0094C111.979 23.115 111.965 23.2206 111.942 23.3246C111.88 23.6189 111.763 23.8605 111.589 24.0525C111.414 24.2445 111.194 24.3869 110.925 24.4813C110.656 24.5757 110.352 24.6221 110.013 24.6221V24.6269ZM110.066 21.9198C110.344 21.9198 110.57 21.8542 110.746 21.7214C110.922 21.5886 111.05 21.4078 111.13 21.1758C111.211 20.9438 111.251 20.6767 111.251 20.3743C111.251 20.0719 111.21 19.8047 111.128 19.5727C111.046 19.3407 110.918 19.1599 110.747 19.0303C110.576 18.9007 110.358 18.8367 110.094 18.8367C109.814 18.8367 109.584 18.9055 109.403 19.0431C109.222 19.1807 109.088 19.3647 109 19.5967C108.912 19.8287 108.869 20.0879 108.869 20.3743C108.869 20.6607 108.912 20.9246 109 21.1566C109.088 21.3886 109.219 21.5758 109.397 21.7134C109.573 21.851 109.797 21.9198 110.067 21.9198H110.066Z" fill="#121028"></path><defs><clipPath id="clip0_1019_33137"><rect width="62" height="24" fill="white" transform="translate(0 0.5)"></rect></clipPath><clipPath id="clip1_1019_33137"><rect width="61.5385" height="24" fill="white" transform="translate(0 0.5)"></rect></clipPath></defs></svg>